<svg xmlns="http://www.w3.org/2000/svg" xmlns:xlink="http://www.w3.org/1999/xlink" width="40" zoomAndPan="magnify" viewBox="0 0 30 30.000001" height="40" preserveAspectRatio="xMidYMid meet" version="1.0"><defs><g/></defs><g fill="#ff0000" fill-opacity="1"><g transform="translate(6.39311, 23.582622)"><g><path d="M 4.085938 -16.347656 C 2.289062 -16.347656 0.816406 -14.878906 0.816406 -13.078125 L 0.816406 0 L 4.085938 0 L 4.085938 -6.539062 L 13.898438 -6.539062 L 13.898438 0 L 17.167969 0 L 17.167969 -13.078125 C 17.167969 -14.878906 15.695312 -16.347656 13.898438 -16.347656 Z M 4.085938 -13.078125 L 13.898438 -13.078125 L 13.898438 -9.808594 L 4.085938 -9.808594 Z M 4.085938 -13.078125 "/></g></g></g><g fill="#00ffff" fill-opacity="1"><g transform="translate(5.626754, 23.582622)"><g><path d="M 4.085938 -16.347656 C 2.289062 -16.347656 0.816406 -14.878906 0.816406 -13.078125 L 0.816406 0 L 4.085938 0 L 4.085938 -6.539062 L 13.898438 -6.539062 L 13.898438 0 L 17.167969 0 L 17.167969 -13.078125 C 17.167969 -14.878906 15.695312 -16.347656 13.898438 -16.347656 Z M 4.085938 -13.078125 L 13.898438 -13.078125 L 13.898438 -9.808594 L 4.085938 -9.808594 Z M 4.085938 -13.078125 "/></g></g></g><g fill="#000000" fill-opacity="1"><g transform="translate(6.009932, 23.582622)"><g><path d="M 4.085938 -16.347656 C 2.289062 -16.347656 0.816406 -14.878906 0.816406 -13.078125 L 0.816406 0 L 4.085938 0 L 4.085938 -6.539062 L 13.898438 -6.539062 L 13.898438 0 L 17.167969 0 L 17.167969 -13.078125 C 17.167969 -14.878906 15.695312 -16.347656 13.898438 -16.347656 Z M 4.085938 -13.078125 L 13.898438 -13.078125 L 13.898438 -9.808594 L 4.085938 -9.808594 Z M 4.085938 -13.078125 "/></g></g></g></svg>