<svg xmlns="http://www.w3.org/2000/svg" xmlns:xlink="http://www.w3.org/1999/xlink" width="40" zoomAndPan="magnify" viewBox="0 0 30 30.000001" height="40" preserveAspectRatio="xMidYMid meet" version="1.0"><defs><g/></defs><g fill="#ff0000" fill-opacity="1"><g transform="translate(6.39311, 23.582622)"><g><path d="M 17.167969 -16.347656 L 4.085938 -16.347656 C 2.289062 -16.347656 0.816406 -14.878906 0.816406 -13.078125 L 0.816406 -3.269531 C 0.816406 -1.472656 2.289062 0 4.085938 0 L 17.167969 0 L 17.167969 -3.269531 L 4.085938 -3.269531 L 4.085938 -6.539062 L 17.167969 -6.539062 L 17.167969 -9.808594 L 4.085938 -9.808594 L 4.085938 -13.078125 L 17.167969 -13.078125 Z M 17.167969 -16.347656 "/></g></g></g><g fill="#00ffff" fill-opacity="1"><g transform="translate(5.626754, 23.582622)"><g><path d="M 17.167969 -16.347656 L 4.085938 -16.347656 C 2.289062 -16.347656 0.816406 -14.878906 0.816406 -13.078125 L 0.816406 -3.269531 C 0.816406 -1.472656 2.289062 0 4.085938 0 L 17.167969 0 L 17.167969 -3.269531 L 4.085938 -3.269531 L 4.085938 -6.539062 L 17.167969 -6.539062 L 17.167969 -9.808594 L 4.085938 -9.808594 L 4.085938 -13.078125 L 17.167969 -13.078125 Z M 17.167969 -16.347656 "/></g></g></g><g fill="#000000" fill-opacity="1"><g transform="translate(6.009932, 23.582622)"><g><path d="M 17.167969 -16.347656 L 4.085938 -16.347656 C 2.289062 -16.347656 0.816406 -14.878906 0.816406 -13.078125 L 0.816406 -3.269531 C 0.816406 -1.472656 2.289062 0 4.085938 0 L 17.167969 0 L 17.167969 -3.269531 L 4.085938 -3.269531 L 4.085938 -6.539062 L 17.167969 -6.539062 L 17.167969 -9.808594 L 4.085938 -9.808594 L 4.085938 -13.078125 L 17.167969 -13.078125 Z M 17.167969 -16.347656 "/></g></g></g></svg>