<svg xmlns="http://www.w3.org/2000/svg" xmlns:xlink="http://www.w3.org/1999/xlink" width="40" zoomAndPan="magnify" viewBox="0 0 30 30.000001" height="40" preserveAspectRatio="xMidYMid meet" version="1.0"><defs><clipPath id="d854d90833"><path d="M 5 0 L 25.652344 0 L 25.652344 29 L 5 29 Z M 5 0 " clip-rule="nonzero"/></clipPath><clipPath id="57fc6fcd1f"><path d="M 4.601562 0 L 25.652344 0 L 25.652344 29 L 4.601562 29 Z M 4.601562 0 " clip-rule="nonzero"/></clipPath></defs><g clip-path="url(#d854d90833)"><path fill="#ffffff" d="M 5.066406 0.585938 L 25.144531 16.425781 L 17.285156 17.339844 L 21.390625 25.195312 C 21.507812 25.421875 21.527344 25.652344 21.449219 25.894531 C 21.371094 26.132812 21.21875 26.3125 20.992188 26.425781 L 19.070312 27.40625 L 17.152344 28.382812 C 16.921875 28.5 16.6875 28.519531 16.445312 28.441406 C 16.199219 28.363281 16.019531 28.214844 15.902344 27.988281 L 11.800781 20.132812 L 6.492188 25.925781 Z M 5.066406 0.585938 " fill-opacity="1" fill-rule="nonzero"/></g><g clip-path="url(#57fc6fcd1f)"><path fill="#1a1a1a" d="M 16.726562 28.941406 C 16.582031 28.941406 16.441406 28.921875 16.304688 28.878906 C 15.9375 28.761719 15.667969 28.535156 15.492188 28.199219 L 11.695312 20.929688 L 6.835938 26.230469 C 6.695312 26.382812 6.53125 26.425781 6.335938 26.355469 C 6.140625 26.289062 6.039062 26.152344 6.027344 25.949219 L 4.601562 0.613281 C 4.589844 0.414062 4.675781 0.269531 4.851562 0.179688 C 5.03125 0.0898438 5.199219 0.105469 5.355469 0.230469 L 25.433594 16.066406 C 25.59375 16.195312 25.644531 16.355469 25.589844 16.550781 C 25.53125 16.746094 25.402344 16.855469 25.199219 16.878906 L 18.003906 17.714844 L 21.800781 24.988281 C 21.882812 25.148438 21.933594 25.320312 21.949219 25.5 C 21.964844 25.683594 21.945312 25.859375 21.886719 26.03125 C 21.832031 26.207031 21.746094 26.363281 21.625 26.5 C 21.507812 26.640625 21.367188 26.75 21.203125 26.835938 L 17.363281 28.789062 C 17.164062 28.890625 16.953125 28.941406 16.726562 28.941406 Z M 11.800781 19.675781 C 11.820312 19.675781 11.839844 19.679688 11.859375 19.679688 C 12.019531 19.699219 12.136719 19.78125 12.210938 19.925781 L 16.316406 27.78125 C 16.375 27.890625 16.464844 27.96875 16.585938 28.007812 C 16.707031 28.042969 16.824219 28.035156 16.9375 27.976562 L 20.777344 26.019531 C 20.890625 25.964844 20.96875 25.875 21.007812 25.753906 C 21.046875 25.632812 21.035156 25.515625 20.976562 25.40625 L 16.875 17.550781 C 16.839844 17.480469 16.824219 17.410156 16.824219 17.335938 C 16.824219 17.261719 16.84375 17.191406 16.878906 17.125 C 16.914062 17.058594 16.960938 17.003906 17.027344 16.960938 C 17.089844 16.917969 17.15625 16.894531 17.234375 16.886719 L 23.988281 16.097656 L 5.585938 1.582031 L 6.890625 24.808594 L 11.457031 19.828125 C 11.550781 19.726562 11.664062 19.675781 11.800781 19.675781 Z M 11.800781 19.675781 " fill-opacity="1" fill-rule="nonzero"/></g></svg>