<svg xmlns="http://www.w3.org/2000/svg" xmlns:xlink="http://www.w3.org/1999/xlink" width="40" zoomAndPan="magnify" viewBox="0 0 30 30.000001" height="40" preserveAspectRatio="xMidYMid meet" version="1.0"><defs><g/><clipPath id="01e6ca40aa"><path d="M 0.484375 11.832031 L 29.515625 11.832031 L 29.515625 16.910156 L 0.484375 16.910156 Z M 0.484375 11.832031 " clip-rule="nonzero"/></clipPath><clipPath id="b199390619"><path d="M 28.832031 16.910156 L 1.167969 16.910156 C 0.792969 16.910156 0.484375 16.621094 0.484375 16.265625 L 0.484375 12.476562 C 0.484375 12.121094 0.792969 11.832031 1.167969 11.832031 L 28.832031 11.832031 C 29.207031 11.832031 29.515625 12.121094 29.515625 12.476562 L 29.515625 16.265625 C 29.515625 16.621094 29.207031 16.910156 28.832031 16.910156 Z M 28.832031 16.910156 " clip-rule="nonzero"/></clipPath><linearGradient x1="244.845011" gradientTransform="matrix(0.0241629, 0, 0, 0.0228858, 0.485347, 11.830646)" y1="-244.844989" x2="956.535408" gradientUnits="userSpaceOnUse" y2="466.845408" id="ac09ed65a6"><stop stop-opacity="1" stop-color="rgb(100%, 100%, 100%)" offset="0"/><stop stop-opacity="1" stop-color="rgb(99.938965%, 99.938965%, 99.938965%)" offset="0.015625"/><stop stop-opacity="1" stop-color="rgb(99.758911%, 99.758911%, 99.758911%)" offset="0.0234375"/><stop stop-opacity="1" stop-color="rgb(99.520874%, 99.520874%, 99.520874%)" offset="0.03125"/><stop stop-opacity="1" stop-color="rgb(99.281311%, 99.281311%, 99.281311%)" offset="0.0390625"/><stop stop-opacity="1" stop-color="rgb(99.043274%, 99.043274%, 99.043274%)" offset="0.046875"/><stop stop-opacity="1" stop-color="rgb(98.805237%, 98.805237%, 98.805237%)" offset="0.0546875"/><stop stop-opacity="1" stop-color="rgb(98.5672%, 98.5672%, 98.5672%)" offset="0.0625"/><stop stop-opacity="1" stop-color="rgb(98.329163%, 98.329163%, 98.329163%)" offset="0.0703125"/><stop stop-opacity="1" stop-color="rgb(98.0896%, 98.0896%, 98.0896%)" offset="0.078125"/><stop stop-opacity="1" stop-color="rgb(97.851562%, 97.851562%, 97.851562%)" offset="0.0859375"/><stop stop-opacity="1" stop-color="rgb(97.613525%, 97.613525%, 97.613525%)" offset="0.09375"/><stop stop-opacity="1" stop-color="rgb(97.375488%, 97.375488%, 97.375488%)" offset="0.101563"/><stop stop-opacity="1" stop-color="rgb(97.135925%, 97.135925%, 97.135925%)" offset="0.109375"/><stop stop-opacity="1" stop-color="rgb(96.897888%, 96.897888%, 96.897888%)" offset="0.117188"/><stop stop-opacity="1" stop-color="rgb(96.659851%, 96.659851%, 96.659851%)" offset="0.125"/><stop stop-opacity="1" stop-color="rgb(96.421814%, 96.421814%, 96.421814%)" offset="0.132813"/><stop stop-opacity="1" stop-color="rgb(96.183777%, 96.183777%, 96.183777%)" offset="0.140625"/><stop stop-opacity="1" stop-color="rgb(95.944214%, 95.944214%, 95.944214%)" offset="0.148438"/><stop stop-opacity="1" stop-color="rgb(95.706177%, 95.706177%, 95.706177%)" offset="0.155967"/><stop stop-opacity="1" stop-color="rgb(95.587158%, 95.587158%, 95.587158%)" offset="0.15625"/><stop stop-opacity="1" stop-color="rgb(95.46814%, 95.46814%, 95.46814%)" offset="0.164063"/><stop stop-opacity="1" stop-color="rgb(95.230103%, 95.230103%, 95.230103%)" offset="0.171875"/><stop stop-opacity="1" stop-color="rgb(94.992065%, 94.992065%, 94.992065%)" offset="0.179688"/><stop stop-opacity="1" stop-color="rgb(94.752502%, 94.752502%, 94.752502%)" offset="0.1875"/><stop stop-opacity="1" stop-color="rgb(94.514465%, 94.514465%, 94.514465%)" offset="0.195313"/><stop stop-opacity="1" stop-color="rgb(94.276428%, 94.276428%, 94.276428%)" offset="0.203125"/><stop stop-opacity="1" stop-color="rgb(94.038391%, 94.038391%, 94.038391%)" offset="0.210938"/><stop stop-opacity="1" stop-color="rgb(93.798828%, 93.798828%, 93.798828%)" offset="0.21875"/><stop stop-opacity="1" stop-color="rgb(93.560791%, 93.560791%, 93.560791%)" offset="0.226563"/><stop stop-opacity="1" stop-color="rgb(93.322754%, 93.322754%, 93.322754%)" offset="0.234375"/><stop stop-opacity="1" stop-color="rgb(93.084717%, 93.084717%, 93.084717%)" offset="0.242188"/><stop stop-opacity="1" stop-color="rgb(92.84668%, 92.84668%, 92.84668%)" offset="0.25"/><stop stop-opacity="1" stop-color="rgb(92.607117%, 92.607117%, 92.607117%)" offset="0.257813"/><stop stop-opacity="1" stop-color="rgb(92.36908%, 92.36908%, 92.36908%)" offset="0.265625"/><stop stop-opacity="1" stop-color="rgb(92.131042%, 92.131042%, 92.131042%)" offset="0.273438"/><stop stop-opacity="1" stop-color="rgb(91.893005%, 91.893005%, 91.893005%)" offset="0.28125"/><stop stop-opacity="1" stop-color="rgb(91.653442%, 91.653442%, 91.653442%)" offset="0.289062"/><stop stop-opacity="1" stop-color="rgb(91.415405%, 91.415405%, 91.415405%)" offset="0.296875"/><stop stop-opacity="1" stop-color="rgb(91.177368%, 91.177368%, 91.177368%)" offset="0.304688"/><stop stop-opacity="1" stop-color="rgb(90.939331%, 90.939331%, 90.939331%)" offset="0.3125"/><stop stop-opacity="1" stop-color="rgb(90.701294%, 90.701294%, 90.701294%)" offset="0.320313"/><stop stop-opacity="1" stop-color="rgb(90.461731%, 90.461731%, 90.461731%)" offset="0.328125"/><stop stop-opacity="1" stop-color="rgb(90.223694%, 90.223694%, 90.223694%)" offset="0.335938"/><stop stop-opacity="1" stop-color="rgb(89.985657%, 89.985657%, 89.985657%)" offset="0.34375"/><stop stop-opacity="1" stop-color="rgb(89.74762%, 89.74762%, 89.74762%)" offset="0.351563"/><stop stop-opacity="1" stop-color="rgb(89.509583%, 89.509583%, 89.509583%)" offset="0.359375"/><stop stop-opacity="1" stop-color="rgb(89.27002%, 89.27002%, 89.27002%)" offset="0.367188"/><stop stop-opacity="1" stop-color="rgb(89.031982%, 89.031982%, 89.031982%)" offset="0.375"/><stop stop-opacity="1" stop-color="rgb(88.793945%, 88.793945%, 88.793945%)" offset="0.382813"/><stop stop-opacity="1" stop-color="rgb(88.555908%, 88.555908%, 88.555908%)" offset="0.390625"/><stop stop-opacity="1" stop-color="rgb(88.316345%, 88.316345%, 88.316345%)" offset="0.398438"/><stop stop-opacity="1" stop-color="rgb(88.078308%, 88.078308%, 88.078308%)" offset="0.40625"/><stop stop-opacity="1" stop-color="rgb(87.840271%, 87.840271%, 87.840271%)" offset="0.414063"/><stop stop-opacity="1" stop-color="rgb(87.602234%, 87.602234%, 87.602234%)" offset="0.421875"/><stop stop-opacity="1" stop-color="rgb(87.364197%, 87.364197%, 87.364197%)" offset="0.429688"/><stop stop-opacity="1" stop-color="rgb(87.124634%, 87.124634%, 87.124634%)" offset="0.4375"/><stop stop-opacity="1" stop-color="rgb(86.886597%, 86.886597%, 86.886597%)" offset="0.445313"/><stop stop-opacity="1" stop-color="rgb(86.64856%, 86.64856%, 86.64856%)" offset="0.453125"/><stop stop-opacity="1" stop-color="rgb(86.410522%, 86.410522%, 86.410522%)" offset="0.460938"/><stop stop-opacity="1" stop-color="rgb(86.170959%, 86.170959%, 86.170959%)" offset="0.46875"/><stop stop-opacity="1" stop-color="rgb(85.932922%, 85.932922%, 85.932922%)" offset="0.476563"/><stop stop-opacity="1" stop-color="rgb(85.694885%, 85.694885%, 85.694885%)" offset="0.484375"/><stop stop-opacity="1" stop-color="rgb(85.456848%, 85.456848%, 85.456848%)" offset="0.492188"/><stop stop-opacity="1" stop-color="rgb(85.218811%, 85.218811%, 85.218811%)" offset="0.5"/><stop stop-opacity="1" stop-color="rgb(84.979248%, 84.979248%, 84.979248%)" offset="0.507813"/><stop stop-opacity="1" stop-color="rgb(84.741211%, 84.741211%, 84.741211%)" offset="0.515625"/><stop stop-opacity="1" stop-color="rgb(84.503174%, 84.503174%, 84.503174%)" offset="0.523438"/><stop stop-opacity="1" stop-color="rgb(84.265137%, 84.265137%, 84.265137%)" offset="0.53125"/><stop stop-opacity="1" stop-color="rgb(84.0271%, 84.0271%, 84.0271%)" offset="0.539063"/><stop stop-opacity="1" stop-color="rgb(83.787537%, 83.787537%, 83.787537%)" offset="0.546875"/><stop stop-opacity="1" stop-color="rgb(83.5495%, 83.5495%, 83.5495%)" offset="0.554688"/><stop stop-opacity="1" stop-color="rgb(83.311462%, 83.311462%, 83.311462%)" offset="0.5625"/><stop stop-opacity="1" stop-color="rgb(83.073425%, 83.073425%, 83.073425%)" offset="0.570313"/><stop stop-opacity="1" stop-color="rgb(82.833862%, 82.833862%, 82.833862%)" offset="0.578125"/><stop stop-opacity="1" stop-color="rgb(82.595825%, 82.595825%, 82.595825%)" offset="0.585938"/><stop stop-opacity="1" stop-color="rgb(82.357788%, 82.357788%, 82.357788%)" offset="0.59375"/><stop stop-opacity="1" stop-color="rgb(82.119751%, 82.119751%, 82.119751%)" offset="0.601563"/><stop stop-opacity="1" stop-color="rgb(81.881714%, 81.881714%, 81.881714%)" offset="0.609375"/><stop stop-opacity="1" stop-color="rgb(81.642151%, 81.642151%, 81.642151%)" offset="0.617188"/><stop stop-opacity="1" stop-color="rgb(81.404114%, 81.404114%, 81.404114%)" offset="0.625"/><stop stop-opacity="1" stop-color="rgb(81.166077%, 81.166077%, 81.166077%)" offset="0.632812"/><stop stop-opacity="1" stop-color="rgb(80.92804%, 80.92804%, 80.92804%)" offset="0.640625"/><stop stop-opacity="1" stop-color="rgb(80.690002%, 80.690002%, 80.690002%)" offset="0.648438"/><stop stop-opacity="1" stop-color="rgb(80.450439%, 80.450439%, 80.450439%)" offset="0.65625"/><stop stop-opacity="1" stop-color="rgb(80.212402%, 80.212402%, 80.212402%)" offset="0.664063"/><stop stop-opacity="1" stop-color="rgb(79.974365%, 79.974365%, 79.974365%)" offset="0.671875"/><stop stop-opacity="1" stop-color="rgb(79.736328%, 79.736328%, 79.736328%)" offset="0.679688"/><stop stop-opacity="1" stop-color="rgb(79.496765%, 79.496765%, 79.496765%)" offset="0.6875"/><stop stop-opacity="1" stop-color="rgb(79.258728%, 79.258728%, 79.258728%)" offset="0.695313"/><stop stop-opacity="1" stop-color="rgb(79.020691%, 79.020691%, 79.020691%)" offset="0.703125"/><stop stop-opacity="1" stop-color="rgb(78.782654%, 78.782654%, 78.782654%)" offset="0.710938"/><stop stop-opacity="1" stop-color="rgb(78.544617%, 78.544617%, 78.544617%)" offset="0.71875"/><stop stop-opacity="1" stop-color="rgb(78.305054%, 78.305054%, 78.305054%)" offset="0.726562"/><stop stop-opacity="1" stop-color="rgb(78.067017%, 78.067017%, 78.067017%)" offset="0.734375"/><stop stop-opacity="1" stop-color="rgb(77.828979%, 77.828979%, 77.828979%)" offset="0.742188"/><stop stop-opacity="1" stop-color="rgb(77.590942%, 77.590942%, 77.590942%)" offset="0.75"/><stop stop-opacity="1" stop-color="rgb(77.351379%, 77.351379%, 77.351379%)" offset="0.757813"/><stop stop-opacity="1" stop-color="rgb(77.113342%, 77.113342%, 77.113342%)" offset="0.765625"/><stop stop-opacity="1" stop-color="rgb(76.875305%, 76.875305%, 76.875305%)" offset="0.773438"/><stop stop-opacity="1" stop-color="rgb(76.637268%, 76.637268%, 76.637268%)" offset="0.78125"/><stop stop-opacity="1" stop-color="rgb(76.399231%, 76.399231%, 76.399231%)" offset="0.789063"/><stop stop-opacity="1" stop-color="rgb(76.159668%, 76.159668%, 76.159668%)" offset="0.796875"/><stop stop-opacity="1" stop-color="rgb(75.921631%, 75.921631%, 75.921631%)" offset="0.804688"/><stop stop-opacity="1" stop-color="rgb(75.683594%, 75.683594%, 75.683594%)" offset="0.8125"/><stop stop-opacity="1" stop-color="rgb(75.445557%, 75.445557%, 75.445557%)" offset="0.820313"/><stop stop-opacity="1" stop-color="rgb(75.20752%, 75.20752%, 75.20752%)" offset="0.828125"/><stop stop-opacity="1" stop-color="rgb(74.967957%, 74.967957%, 74.967957%)" offset="0.835938"/><stop stop-opacity="1" stop-color="rgb(74.729919%, 74.729919%, 74.729919%)" offset="0.84375"/><stop stop-opacity="1" stop-color="rgb(74.491882%, 74.491882%, 74.491882%)" offset="0.844033"/><stop stop-opacity="1" stop-color="rgb(74.372864%, 74.372864%, 74.372864%)" offset="0.851563"/><stop stop-opacity="1" stop-color="rgb(74.253845%, 74.253845%, 74.253845%)" offset="0.859375"/><stop stop-opacity="1" stop-color="rgb(74.014282%, 74.014282%, 74.014282%)" offset="0.867188"/><stop stop-opacity="1" stop-color="rgb(73.776245%, 73.776245%, 73.776245%)" offset="0.875"/><stop stop-opacity="1" stop-color="rgb(73.538208%, 73.538208%, 73.538208%)" offset="0.882812"/><stop stop-opacity="1" stop-color="rgb(73.300171%, 73.300171%, 73.300171%)" offset="0.890625"/><stop stop-opacity="1" stop-color="rgb(73.062134%, 73.062134%, 73.062134%)" offset="0.898438"/><stop stop-opacity="1" stop-color="rgb(72.822571%, 72.822571%, 72.822571%)" offset="0.90625"/><stop stop-opacity="1" stop-color="rgb(72.584534%, 72.584534%, 72.584534%)" offset="0.914063"/><stop stop-opacity="1" stop-color="rgb(72.346497%, 72.346497%, 72.346497%)" offset="0.921875"/><stop stop-opacity="1" stop-color="rgb(72.108459%, 72.108459%, 72.108459%)" offset="0.929688"/><stop stop-opacity="1" stop-color="rgb(71.868896%, 71.868896%, 71.868896%)" offset="0.9375"/><stop stop-opacity="1" stop-color="rgb(71.630859%, 71.630859%, 71.630859%)" offset="0.945313"/><stop stop-opacity="1" stop-color="rgb(71.392822%, 71.392822%, 71.392822%)" offset="0.953125"/><stop stop-opacity="1" stop-color="rgb(71.154785%, 71.154785%, 71.154785%)" offset="0.960938"/><stop stop-opacity="1" stop-color="rgb(70.916748%, 70.916748%, 70.916748%)" offset="0.96875"/><stop stop-opacity="1" stop-color="rgb(70.677185%, 70.677185%, 70.677185%)" offset="0.976562"/><stop stop-opacity="1" stop-color="rgb(70.439148%, 70.439148%, 70.439148%)" offset="0.984375"/><stop stop-opacity="1" stop-color="rgb(70.259094%, 70.259094%, 70.259094%)" offset="1"/></linearGradient><clipPath id="fe147ed35c"><path d="M 1 12 L 29 12 L 29 16.910156 L 1 16.910156 Z M 1 12 " clip-rule="nonzero"/></clipPath><clipPath id="8317b2abb6"><path d="M 28.347656 16.167969 L 1.652344 16.167969 C 1.367188 16.167969 1.136719 15.945312 1.136719 15.675781 L 1.136719 12.808594 C 1.136719 12.539062 1.367188 12.316406 1.652344 12.316406 L 28.347656 12.316406 C 28.632812 12.316406 28.863281 12.539062 28.863281 12.808594 L 28.863281 15.675781 C 28.863281 15.945312 28.632812 16.167969 28.347656 16.167969 Z M 28.347656 16.167969 " clip-rule="nonzero"/></clipPath><linearGradient x1="780.547209" gradientTransform="matrix(0.0241629, 0, 0, 0.0228858, 0.485347, 11.830646)" y1="416.87649" x2="420.832782" gradientUnits="userSpaceOnUse" y2="-206.168495" id="e4c58f9260"><stop stop-opacity="1" stop-color="rgb(100%, 100%, 100%)" offset="0"/><stop stop-opacity="1" stop-color="rgb(99.951172%, 99.951172%, 99.951172%)" offset="0.015625"/><stop stop-opacity="1" stop-color="rgb(99.742126%, 99.742126%, 99.742126%)" offset="0.03125"/><stop stop-opacity="1" stop-color="rgb(99.423218%, 99.423218%, 99.423218%)" offset="0.046875"/><stop stop-opacity="1" stop-color="rgb(99.104309%, 99.104309%, 99.104309%)" offset="0.0625"/><stop stop-opacity="1" stop-color="rgb(98.783875%, 98.783875%, 98.783875%)" offset="0.078125"/><stop stop-opacity="1" stop-color="rgb(98.464966%, 98.464966%, 98.464966%)" offset="0.09375"/><stop stop-opacity="1" stop-color="rgb(98.144531%, 98.144531%, 98.144531%)" offset="0.109375"/><stop stop-opacity="1" stop-color="rgb(97.825623%, 97.825623%, 97.825623%)" offset="0.125"/><stop stop-opacity="1" stop-color="rgb(97.506714%, 97.506714%, 97.506714%)" offset="0.140625"/><stop stop-opacity="1" stop-color="rgb(97.186279%, 97.186279%, 97.186279%)" offset="0.15625"/><stop stop-opacity="1" stop-color="rgb(96.867371%, 96.867371%, 96.867371%)" offset="0.171875"/><stop stop-opacity="1" stop-color="rgb(96.548462%, 96.548462%, 96.548462%)" offset="0.1875"/><stop stop-opacity="1" stop-color="rgb(96.228027%, 96.228027%, 96.228027%)" offset="0.202452"/><stop stop-opacity="1" stop-color="rgb(96.069336%, 96.069336%, 96.069336%)" offset="0.203125"/><stop stop-opacity="1" stop-color="rgb(95.909119%, 95.909119%, 95.909119%)" offset="0.21875"/><stop stop-opacity="1" stop-color="rgb(95.588684%, 95.588684%, 95.588684%)" offset="0.234375"/><stop stop-opacity="1" stop-color="rgb(95.269775%, 95.269775%, 95.269775%)" offset="0.25"/><stop stop-opacity="1" stop-color="rgb(94.950867%, 94.950867%, 94.950867%)" offset="0.265625"/><stop stop-opacity="1" stop-color="rgb(94.630432%, 94.630432%, 94.630432%)" offset="0.28125"/><stop stop-opacity="1" stop-color="rgb(94.311523%, 94.311523%, 94.311523%)" offset="0.296875"/><stop stop-opacity="1" stop-color="rgb(93.992615%, 93.992615%, 93.992615%)" offset="0.3125"/><stop stop-opacity="1" stop-color="rgb(93.67218%, 93.67218%, 93.67218%)" offset="0.328125"/><stop stop-opacity="1" stop-color="rgb(93.353271%, 93.353271%, 93.353271%)" offset="0.34375"/><stop stop-opacity="1" stop-color="rgb(93.034363%, 93.034363%, 93.034363%)" offset="0.359375"/><stop stop-opacity="1" stop-color="rgb(92.713928%, 92.713928%, 92.713928%)" offset="0.375"/><stop stop-opacity="1" stop-color="rgb(92.39502%, 92.39502%, 92.39502%)" offset="0.390625"/><stop stop-opacity="1" stop-color="rgb(92.074585%, 92.074585%, 92.074585%)" offset="0.40625"/><stop stop-opacity="1" stop-color="rgb(91.755676%, 91.755676%, 91.755676%)" offset="0.421875"/><stop stop-opacity="1" stop-color="rgb(91.436768%, 91.436768%, 91.436768%)" offset="0.4375"/><stop stop-opacity="1" stop-color="rgb(91.116333%, 91.116333%, 91.116333%)" offset="0.453125"/><stop stop-opacity="1" stop-color="rgb(90.797424%, 90.797424%, 90.797424%)" offset="0.46875"/><stop stop-opacity="1" stop-color="rgb(90.478516%, 90.478516%, 90.478516%)" offset="0.484375"/><stop stop-opacity="1" stop-color="rgb(90.158081%, 90.158081%, 90.158081%)" offset="0.5"/><stop stop-opacity="1" stop-color="rgb(89.839172%, 89.839172%, 89.839172%)" offset="0.515625"/><stop stop-opacity="1" stop-color="rgb(89.520264%, 89.520264%, 89.520264%)" offset="0.53125"/><stop stop-opacity="1" stop-color="rgb(89.199829%, 89.199829%, 89.199829%)" offset="0.546875"/><stop stop-opacity="1" stop-color="rgb(88.88092%, 88.88092%, 88.88092%)" offset="0.5625"/><stop stop-opacity="1" stop-color="rgb(88.560486%, 88.560486%, 88.560486%)" offset="0.578125"/><stop stop-opacity="1" stop-color="rgb(88.241577%, 88.241577%, 88.241577%)" offset="0.59375"/><stop stop-opacity="1" stop-color="rgb(87.922668%, 87.922668%, 87.922668%)" offset="0.609375"/><stop stop-opacity="1" stop-color="rgb(87.602234%, 87.602234%, 87.602234%)" offset="0.625"/><stop stop-opacity="1" stop-color="rgb(87.283325%, 87.283325%, 87.283325%)" offset="0.640625"/><stop stop-opacity="1" stop-color="rgb(86.964417%, 86.964417%, 86.964417%)" offset="0.65625"/><stop stop-opacity="1" stop-color="rgb(86.643982%, 86.643982%, 86.643982%)" offset="0.671875"/><stop stop-opacity="1" stop-color="rgb(86.325073%, 86.325073%, 86.325073%)" offset="0.6875"/><stop stop-opacity="1" stop-color="rgb(86.006165%, 86.006165%, 86.006165%)" offset="0.703125"/><stop stop-opacity="1" stop-color="rgb(85.68573%, 85.68573%, 85.68573%)" offset="0.71875"/><stop stop-opacity="1" stop-color="rgb(85.366821%, 85.366821%, 85.366821%)" offset="0.734375"/><stop stop-opacity="1" stop-color="rgb(85.046387%, 85.046387%, 85.046387%)" offset="0.75"/><stop stop-opacity="1" stop-color="rgb(84.727478%, 84.727478%, 84.727478%)" offset="0.765625"/><stop stop-opacity="1" stop-color="rgb(84.408569%, 84.408569%, 84.408569%)" offset="0.78125"/><stop stop-opacity="1" stop-color="rgb(84.088135%, 84.088135%, 84.088135%)" offset="0.796875"/><stop stop-opacity="1" stop-color="rgb(83.769226%, 83.769226%, 83.769226%)" offset="0.797548"/><stop stop-opacity="1" stop-color="rgb(83.610535%, 83.610535%, 83.610535%)" offset="0.8125"/><stop stop-opacity="1" stop-color="rgb(83.450317%, 83.450317%, 83.450317%)" offset="0.828125"/><stop stop-opacity="1" stop-color="rgb(83.129883%, 83.129883%, 83.129883%)" offset="0.84375"/><stop stop-opacity="1" stop-color="rgb(82.810974%, 82.810974%, 82.810974%)" offset="0.859375"/><stop stop-opacity="1" stop-color="rgb(82.49054%, 82.49054%, 82.49054%)" offset="0.875"/><stop stop-opacity="1" stop-color="rgb(82.171631%, 82.171631%, 82.171631%)" offset="0.890625"/><stop stop-opacity="1" stop-color="rgb(81.852722%, 81.852722%, 81.852722%)" offset="0.90625"/><stop stop-opacity="1" stop-color="rgb(81.532288%, 81.532288%, 81.532288%)" offset="0.921875"/><stop stop-opacity="1" stop-color="rgb(81.213379%, 81.213379%, 81.213379%)" offset="0.9375"/><stop stop-opacity="1" stop-color="rgb(80.89447%, 80.89447%, 80.89447%)" offset="0.953125"/><stop stop-opacity="1" stop-color="rgb(80.574036%, 80.574036%, 80.574036%)" offset="0.96875"/><stop stop-opacity="1" stop-color="rgb(80.255127%, 80.255127%, 80.255127%)" offset="0.984375"/><stop stop-opacity="1" stop-color="rgb(80.047607%, 80.047607%, 80.047607%)" offset="1"/></linearGradient><clipPath id="3149937f3a"><path d="M 1 12 L 29 12 L 29 16.910156 L 1 16.910156 Z M 1 12 " clip-rule="nonzero"/></clipPath></defs><g clip-path="url(#01e6ca40aa)"><g clip-path="url(#b199390619)"><path fill="url(#ac09ed65a6)" d="M 0.484375 11.832031 L 0.484375 16.910156 L 29.515625 16.910156 L 29.515625 11.832031 Z M 0.484375 11.832031 " fill-rule="nonzero"/></g></g><g clip-path="url(#fe147ed35c)"><g clip-path="url(#8317b2abb6)"><path fill="url(#e4c58f9260)" d="M 1.136719 12.316406 L 1.136719 16.167969 L 28.863281 16.167969 L 28.863281 12.316406 Z M 1.136719 12.316406 " fill-rule="nonzero"/></g></g><g clip-path="url(#3149937f3a)"><path fill="#ffffff" d="M 28.347656 16.183594 L 1.652344 16.183594 C 1.359375 16.183594 1.117188 15.957031 1.117188 15.675781 L 1.117188 12.808594 C 1.117188 12.527344 1.359375 12.300781 1.652344 12.300781 L 28.347656 12.300781 C 28.640625 12.300781 28.882812 12.527344 28.882812 12.808594 L 28.882812 15.675781 C 28.882812 15.957031 28.640625 16.183594 28.347656 16.183594 Z M 1.652344 12.332031 C 1.375 12.332031 1.152344 12.546875 1.152344 12.808594 L 1.152344 15.675781 C 1.152344 15.9375 1.375 16.148438 1.652344 16.148438 L 28.347656 16.148438 C 28.621094 16.148438 28.847656 15.9375 28.847656 15.675781 L 28.847656 12.808594 C 28.847656 12.546875 28.621094 12.332031 28.347656 12.332031 Z M 1.652344 12.332031 " fill-opacity="1" fill-rule="nonzero"/></g><g fill="#ff00ff" fill-opacity="1"><g transform="translate(9.042751, 15.25421)"><g><path d="M 1.941406 -1.847656 L 0.460938 -1.847656 C 0.257812 -1.847656 0.09375 -1.683594 0.09375 -1.480469 L 0.09375 -1.109375 C 0.09375 -0.90625 0.257812 -0.738281 0.460938 -0.738281 L 1.570312 -0.738281 L 1.570312 -0.371094 L 0.09375 -0.371094 L 0.09375 0 L 1.570312 0 C 1.777344 0 1.941406 -0.167969 1.941406 -0.371094 L 1.941406 -0.738281 C 1.941406 -0.941406 1.777344 -1.109375 1.570312 -1.109375 L 0.460938 -1.109375 L 0.460938 -1.480469 L 1.941406 -1.480469 Z M 1.941406 -1.847656 "/></g></g></g><g fill="#ff00ff" fill-opacity="1"><g transform="translate(11.442355, 15.25421)"><g><path d="M 1.570312 -1.847656 L 0.09375 -1.847656 L 0.09375 0 L 0.460938 0 L 0.460938 -0.738281 L 1.570312 -0.738281 C 1.777344 -0.738281 1.941406 -0.90625 1.941406 -1.109375 L 1.941406 -1.480469 C 1.941406 -1.683594 1.777344 -1.847656 1.570312 -1.847656 Z M 0.460938 -1.109375 L 0.460938 -1.480469 L 1.570312 -1.480469 L 1.570312 -1.109375 Z M 0.460938 -1.109375 "/></g></g></g><g fill="#ff00ff" fill-opacity="1"><g transform="translate(13.841959, 15.25421)"><g><path d="M 0.460938 -1.847656 C 0.257812 -1.847656 0.09375 -1.683594 0.09375 -1.480469 L 0.09375 0 L 0.460938 0 L 0.460938 -0.738281 L 1.570312 -0.738281 L 1.570312 0 L 1.941406 0 L 1.941406 -1.480469 C 1.941406 -1.683594 1.777344 -1.847656 1.570312 -1.847656 Z M 0.460938 -1.480469 L 1.570312 -1.480469 L 1.570312 -1.109375 L 0.460938 -1.109375 Z M 0.460938 -1.480469 "/></g></g></g><g fill="#ff00ff" fill-opacity="1"><g transform="translate(16.241564, 15.25421)"><g><path d="M 1.941406 0 L 1.941406 -0.371094 L 0.460938 -0.371094 L 0.460938 -1.480469 L 1.941406 -1.480469 L 1.941406 -1.847656 L 0.460938 -1.847656 C 0.257812 -1.847656 0.09375 -1.683594 0.09375 -1.480469 L 0.09375 -0.371094 C 0.09375 -0.167969 0.257812 0 0.460938 0 Z M 1.941406 0 "/></g></g></g><g fill="#ff00ff" fill-opacity="1"><g transform="translate(18.641168, 15.25421)"><g><path d="M 1.941406 -1.847656 L 0.460938 -1.847656 C 0.257812 -1.847656 0.09375 -1.683594 0.09375 -1.480469 L 0.09375 -0.371094 C 0.09375 -0.167969 0.257812 0 0.460938 0 L 1.941406 0 L 1.941406 -0.371094 L 0.460938 -0.371094 L 0.460938 -0.738281 L 1.941406 -0.738281 L 1.941406 -1.109375 L 0.460938 -1.109375 L 0.460938 -1.480469 L 1.941406 -1.480469 Z M 1.941406 -1.847656 "/></g></g></g><g fill="#00ffff" fill-opacity="1"><g transform="translate(9.324313, 15.319213)"><g><path d="M 1.941406 -1.847656 L 0.460938 -1.847656 C 0.257812 -1.847656 0.09375 -1.683594 0.09375 -1.480469 L 0.09375 -1.109375 C 0.09375 -0.90625 0.257812 -0.738281 0.460938 -0.738281 L 1.570312 -0.738281 L 1.570312 -0.371094 L 0.09375 -0.371094 L 0.09375 0 L 1.570312 0 C 1.777344 0 1.941406 -0.167969 1.941406 -0.371094 L 1.941406 -0.738281 C 1.941406 -0.941406 1.777344 -1.109375 1.570312 -1.109375 L 0.460938 -1.109375 L 0.460938 -1.480469 L 1.941406 -1.480469 Z M 1.941406 -1.847656 "/></g></g></g><g fill="#00ffff" fill-opacity="1"><g transform="translate(11.723917, 15.319213)"><g><path d="M 1.570312 -1.847656 L 0.09375 -1.847656 L 0.09375 0 L 0.460938 0 L 0.460938 -0.738281 L 1.570312 -0.738281 C 1.777344 -0.738281 1.941406 -0.90625 1.941406 -1.109375 L 1.941406 -1.480469 C 1.941406 -1.683594 1.777344 -1.847656 1.570312 -1.847656 Z M 0.460938 -1.109375 L 0.460938 -1.480469 L 1.570312 -1.480469 L 1.570312 -1.109375 Z M 0.460938 -1.109375 "/></g></g></g><g fill="#00ffff" fill-opacity="1"><g transform="translate(14.123521, 15.319213)"><g><path d="M 0.460938 -1.847656 C 0.257812 -1.847656 0.09375 -1.683594 0.09375 -1.480469 L 0.09375 0 L 0.460938 0 L 0.460938 -0.738281 L 1.570312 -0.738281 L 1.570312 0 L 1.941406 0 L 1.941406 -1.480469 C 1.941406 -1.683594 1.777344 -1.847656 1.570312 -1.847656 Z M 0.460938 -1.480469 L 1.570312 -1.480469 L 1.570312 -1.109375 L 0.460938 -1.109375 Z M 0.460938 -1.480469 "/></g></g></g><g fill="#00ffff" fill-opacity="1"><g transform="translate(16.523125, 15.319213)"><g><path d="M 1.941406 0 L 1.941406 -0.371094 L 0.460938 -0.371094 L 0.460938 -1.480469 L 1.941406 -1.480469 L 1.941406 -1.847656 L 0.460938 -1.847656 C 0.257812 -1.847656 0.09375 -1.683594 0.09375 -1.480469 L 0.09375 -0.371094 C 0.09375 -0.167969 0.257812 0 0.460938 0 Z M 1.941406 0 "/></g></g></g><g fill="#00ffff" fill-opacity="1"><g transform="translate(18.92273, 15.319213)"><g><path d="M 1.941406 -1.847656 L 0.460938 -1.847656 C 0.257812 -1.847656 0.09375 -1.683594 0.09375 -1.480469 L 0.09375 -0.371094 C 0.09375 -0.167969 0.257812 0 0.460938 0 L 1.941406 0 L 1.941406 -0.371094 L 0.460938 -0.371094 L 0.460938 -0.738281 L 1.941406 -0.738281 L 1.941406 -1.109375 L 0.460938 -1.109375 L 0.460938 -1.480469 L 1.941406 -1.480469 Z M 1.941406 -1.847656 "/></g></g></g><g fill="#000000" fill-opacity="1"><g transform="translate(9.183532, 15.286712)"><g><path d="M 1.941406 -1.847656 L 0.460938 -1.847656 C 0.257812 -1.847656 0.09375 -1.683594 0.09375 -1.480469 L 0.09375 -1.109375 C 0.09375 -0.90625 0.257812 -0.738281 0.460938 -0.738281 L 1.570312 -0.738281 L 1.570312 -0.371094 L 0.09375 -0.371094 L 0.09375 0 L 1.570312 0 C 1.777344 0 1.941406 -0.167969 1.941406 -0.371094 L 1.941406 -0.738281 C 1.941406 -0.941406 1.777344 -1.109375 1.570312 -1.109375 L 0.460938 -1.109375 L 0.460938 -1.480469 L 1.941406 -1.480469 Z M 1.941406 -1.847656 "/></g></g></g><g fill="#000000" fill-opacity="1"><g transform="translate(11.583136, 15.286712)"><g><path d="M 1.570312 -1.847656 L 0.09375 -1.847656 L 0.09375 0 L 0.460938 0 L 0.460938 -0.738281 L 1.570312 -0.738281 C 1.777344 -0.738281 1.941406 -0.90625 1.941406 -1.109375 L 1.941406 -1.480469 C 1.941406 -1.683594 1.777344 -1.847656 1.570312 -1.847656 Z M 0.460938 -1.109375 L 0.460938 -1.480469 L 1.570312 -1.480469 L 1.570312 -1.109375 Z M 0.460938 -1.109375 "/></g></g></g><g fill="#000000" fill-opacity="1"><g transform="translate(13.98274, 15.286712)"><g><path d="M 0.460938 -1.847656 C 0.257812 -1.847656 0.09375 -1.683594 0.09375 -1.480469 L 0.09375 0 L 0.460938 0 L 0.460938 -0.738281 L 1.570312 -0.738281 L 1.570312 0 L 1.941406 0 L 1.941406 -1.480469 C 1.941406 -1.683594 1.777344 -1.847656 1.570312 -1.847656 Z M 0.460938 -1.480469 L 1.570312 -1.480469 L 1.570312 -1.109375 L 0.460938 -1.109375 Z M 0.460938 -1.480469 "/></g></g></g><g fill="#000000" fill-opacity="1"><g transform="translate(16.382345, 15.286712)"><g><path d="M 1.941406 0 L 1.941406 -0.371094 L 0.460938 -0.371094 L 0.460938 -1.480469 L 1.941406 -1.480469 L 1.941406 -1.847656 L 0.460938 -1.847656 C 0.257812 -1.847656 0.09375 -1.683594 0.09375 -1.480469 L 0.09375 -0.371094 C 0.09375 -0.167969 0.257812 0 0.460938 0 Z M 1.941406 0 "/></g></g></g><g fill="#000000" fill-opacity="1"><g transform="translate(18.781949, 15.286712)"><g><path d="M 1.941406 -1.847656 L 0.460938 -1.847656 C 0.257812 -1.847656 0.09375 -1.683594 0.09375 -1.480469 L 0.09375 -0.371094 C 0.09375 -0.167969 0.257812 0 0.460938 0 L 1.941406 0 L 1.941406 -0.371094 L 0.460938 -0.371094 L 0.460938 -0.738281 L 1.941406 -0.738281 L 1.941406 -1.109375 L 0.460938 -1.109375 L 0.460938 -1.480469 L 1.941406 -1.480469 Z M 1.941406 -1.847656 "/></g></g></g></svg>